<?xml version="1.0" encoding="utf-8"?>
<!-- Generator: Adobe Illustrator 26.5.0, SVG Export Plug-In . SVG Version: 6.00 Build 0)  -->
<svg version="1.1" id="Layer_1" xmlns="http://www.w3.org/2000/svg" xmlns:xlink="http://www.w3.org/1999/xlink" x="0px" y="0px"
	 viewBox="0 0 1796 541" style="enable-background:new 0 0 1796 541;" xml:space="preserve">
<style type="text/css">
	.st0{fill:#333333;}
	.st1{fill:#202020;}
	.st2{fill:#FFFFFF;}
	.st3{display:none;}
	.st4{display:inline;fill:#FF794C;}
	.st5{display:inline;}
	.st6{fill:#FAFAFA;}
	.st7{display:inline;fill:#202020;}
	.st8{display:inline;fill:#FAFAFA;}
	.st9{display:inline;fill:#1A1A1A;}
</style>
<g>
	<g>
		<path d="M271.5,228.3"/>
		<path d="M272,271"/>
	</g>
	<g>
		<g>
			<g>
				<polygon class="st0" points="1419,537 1419,104.1 1516.7,5 1627,5 1627,58.7 1680.6,5 1792,5 1792,281.3 1688.8,438.5 
					1590.3,537 				"/>
				<path class="st1" d="M1623,9v40v19.3l13.7-13.7L1682.3,9L1788,9l0,271.1l-102.3,155.9l-97.1,97.1H1423V105.8L1518.3,9H1623
					 M1796,1l-117,0l-48,48V1h-116l-100,101.5V541h177l100-100h0l104-158.5L1796,1L1796,1z"/>
			</g>
			<g>
				<polygon class="st0" points="1177,537 1177,194 1084,194 1084,102.6 1181.3,5 1478,5 1478,96.1 1387,187.4 1387,438.4 
					1289.3,537 				"/>
				<path class="st1" d="M1474,9v85.4l-88.7,89.1l-2.3,2.3v3.3v247.6l-95.3,96.3H1181V198v-8h-8h-85v-85.7L1182.9,9H1474 M1180,0.6
					L1080,101v97h93v343h118l100-101V189.1l91.7-92.1h-0.7V1h-302V0.6L1180,0.6z"/>
			</g>
			<g>
				<polygon class="st0" points="670,537 670,102.7 767.7,5.1 972.9,5 1017,54.6 1017,164.3 989.6,195.8 1037,236.6 1037,371.3 
					976.1,438.2 875.6,537 				"/>
				<path class="st1" d="M971.1,9l41.9,47.1v106.7l-23.8,27.4l-5.3,6.1l6.1,5.2l43,37v131.3l-59.8,65.7L874,533H674V104.3l95.3-95.3
					L971.1,9 M974.7,1L766,1.1L665.8,101.2l0.2,0.2V541h211.3L979,441l62-68.2v-138l-45.8-39.4l25.8-29.7V53.1L974.7,1L974.7,1z"/>
			</g>
			<g>
				<polygon class="st0" points="495,537 495,487 440.7,537 329,537 329,260.2 426.3,103.4 524.5,5 703,5 703,439.3 605,537 				"/>
				<path class="st1" d="M699,9l0,428.7L603.4,533H499v-36.8v-18.2l-13.4,12.3L439.2,533H333V261.4l96.4-155.5L526.1,9H699 M707,1
					H522.8l0,0l-99.7,99.8L325,259.1V541h117.3l48.7-44.8V541h115.7L707,441L707,1L707,1z"/>
			</g>
			<g>
				<polygon class="st0" points="4,537 4,101.7 101.6,5 367,5 367,126 269,224.4 212,237.8 212,326.7 218.8,320 264.6,275 367,275 
					367,438.3 268.3,537 				"/>
				<path class="st1" d="M363,9v115.3l-96.1,96.4l-52.8,12.5l-6.2,1.5v6.3v76.2v19.1l13.6-13.4l44.7-43.9H363v157.7L266.7,533H8
					V103.3L103.3,9H363 M371,1H100L0,100v441h270l101-101V271h-0.3H263l-47,46.2v0V241l55-13l100-100.4V1L371,1z"/>
			</g>
		</g>
	</g>
	<g>
		<g>
			<polygon class="st2" points="1519,437 1519,5 1627,5 1627,351.8 1683,263.2 1683,5 1792,5 1792,281.3 1689.8,437 			"/>
			<path class="st1" d="M1788,9l0,271.1L1687.6,433H1523V9h100v329v27.6l14.8-23.4l48-76l1.2-2V262V9H1788 M1796,1h-117v261l-48,76
				V1h-116v440h177l104-158.5L1796,1L1796,1z"/>
		</g>
		<g>
			<polygon class="st2" points="1278,436 1278,93 1184,93 1184,5 1478,5 1478,93 1387,93 1387,436 			"/>
			<path class="st1" d="M1474,9v80h-83h-8v8v91.9V432h-101V97v-8h-8h-86V9H1474 M1482,1h-302v96h94v343h117V188.9V97h91V1L1482,1z"
				/>
		</g>
		<g>
			<path class="st2" d="M770,437V5h202.9l44.1,49.6v109.7l-27.4,31.6l47.4,40.8v134.7L977.2,437H770z M878,336h39.8l15.2-17.5V246
				h-55V336z M878,179h55v-66.7L917.3,94H878V179z"/>
			<path class="st1" d="M971.1,9l41.9,47.1v106.7l-23.8,27.4l-5.3,6.1l6.1,5.2l43,37v131.3L975.5,433H774V9H971.1 M874,183h8h47h8
				v-8v-61.2v-3l-1.9-2.2l-13.5-15.8l-2.4-2.8h-3.7H882h-8v8v77V183 M874,340h8h34h3.7l2.4-2.8l13-15l2-2.3v-3v-67v-8h-8h-47h-8v8
				v82V340 M974.7,1H766v440h213l62-68.2v-138l-45.8-39.4l25.8-29.7V53.1L974.7,1L974.7,1z M882,175V98h33.5l13.5,15.8V175H882
				L882,175z M882,332v-82h47v67l-13,15H882L882,332z"/>
		</g>
		<g>
			<path class="st2" d="M595,437V291h-57v146H429V159.5L525,5h178l0,432H595z M538,177.9V211h57V89.1L538,177.9z"/>
			<path class="st1" d="M699,9l0,424H599V295v-8h-8h-49h-8v8v138H433V160.7L527.2,9H699 M534,215h8h49h8v-8V102.7V75.4l-14.7,23
				l-49,76.4l-1.3,2v2.3V207V215 M707,1H522.8L425,158.4V441h117V295h49v146h116L707,1L707,1z M542,207v-27.9l49-76.4V207H542
				L542,207z"/>
		</g>
		<g>
			<polygon class="st2" points="104,436 104,5 367,5 367,124.5 267,149.1 267,93 212,93 212,335 267,335 267,275 367,275 367,436 
							"/>
			<path class="st1" d="M363,9v112.4L271,144V97v-8h-8h-47h-8v8v144.3v75.9V331v8h8h47h8v-8v-52h92v153H108V9H363 M371,1H100v439
				h271V271h-0.3H263v60h-47v-13.8v-75.9V97h47v57.2l108-26.6v0.4V1L371,1z"/>
		</g>
	</g>
	<g class="st3">
		<path class="st4" d="M371,271v169.6H100V1h272v126.7l-109,26.7v-57h-47v233.9h47V271H371z"/>
		<path class="st4" d="M707,0v440.6H591V254.9h-49v185.7H425V158.4L523.1,0H707z M542,178.8v7.9h49v-84.3L542,178.8z"/>
		<path class="st4" d="M978.9,440.6H766V1h209.7l45.3,52.1v112.6l-25.8,29.7l45.8,39.4v138.1L978.9,440.6z M929,113.2l-13.5-15.8
			H882v77.3h47V113.2z M929,317v-67.1h-47v82.3h33.5L929,317z"/>
		<path class="st4" d="M1391,97.4v343.3h-117V97.4h-94V1h302v96.4H1391z"/>
		<path class="st4" d="M1796,0v282.2l-104,158.4h-177V0h116v338.3l48-76.4V0H1796z"/>
	</g>
</g>
<g class="st3">
	<g class="st5">
		<rect x="87.6" y="626" class="st1" width="43.8" height="45"/>
		<rect y="626" class="st1" width="43.8" height="45"/>
		<rect y="581" class="st6" width="43.8" height="45"/>
		<rect x="43.8" y="626" class="st6" width="43.8" height="45"/>
		<rect x="175.3" y="626" class="st1" width="43.8" height="45"/>
		<rect x="87.6" y="581" class="st6" width="43.8" height="45"/>
		<rect x="131.4" y="626" class="st6" width="43.8" height="45"/>
		<rect x="175.3" y="581" class="st6" width="43.8" height="45"/>
		<rect x="262.9" y="626" class="st1" width="43.8" height="45"/>
		<rect x="219.1" y="626" class="st6" width="43.8" height="45"/>
		<rect x="262.9" y="581" class="st6" width="43.8" height="45"/>
		<rect x="350.5" y="626" class="st1" width="43.8" height="45"/>
		<rect x="306.7" y="626" class="st6" width="43.8" height="45"/>
		<rect x="350.5" y="581" class="st6" width="43.8" height="45"/>
		<rect x="394.3" y="626" class="st6" width="43.8" height="45"/>
		<rect x="438.2" y="581" class="st6" width="43.8" height="45"/>
		<rect x="525.8" y="626" class="st1" width="43.8" height="45"/>
		<rect x="482" y="626" class="st6" width="43.8" height="45"/>
		<rect x="525.8" y="581" class="st6" width="43.8" height="45"/>
		<rect x="613.4" y="626" class="st1" width="43.8" height="45"/>
		<rect x="569.6" y="626" class="st6" width="43.8" height="45"/>
		<rect x="613.4" y="581" class="st6" width="43.8" height="45"/>
		<rect x="701" y="626" class="st1" width="43.8" height="45"/>
		<rect x="657.2" y="626" class="st6" width="43.8" height="45"/>
		<rect x="701" y="581" class="st6" width="43.8" height="45"/>
		<rect x="788.7" y="626" class="st1" width="43.8" height="45"/>
		<rect x="744.9" y="626" class="st6" width="43.8" height="45"/>
		<rect x="788.7" y="581" class="st6" width="43.8" height="45"/>
		<rect x="876.3" y="626" class="st1" width="43.8" height="45"/>
		<rect x="832.5" y="626" class="st6" width="43.8" height="45"/>
		<rect x="876.3" y="581" class="st6" width="43.8" height="45"/>
		<rect x="963.9" y="626" class="st1" width="43.8" height="45"/>
		<rect x="920.1" y="626" class="st6" width="43.8" height="45"/>
		<rect x="963.9" y="581" class="st6" width="43.8" height="45"/>
		<rect x="1051.6" y="626" class="st1" width="43.8" height="45"/>
		<rect x="1007.7" y="626" class="st6" width="43.8" height="45"/>
		<rect x="1051.6" y="581" class="st6" width="43.8" height="45"/>
		<rect x="1139.2" y="626" class="st1" width="43.8" height="45"/>
		<rect x="1095.4" y="626" class="st6" width="43.8" height="45"/>
		<rect x="1139.2" y="581" class="st6" width="43.8" height="45"/>
		<rect x="1226.8" y="626" class="st1" width="43.8" height="45"/>
		<rect x="1183" y="626" class="st6" width="43.8" height="45"/>
		<rect x="1226.8" y="581" class="st6" width="43.8" height="45"/>
		<rect x="1314.5" y="626" class="st1" width="43.8" height="45"/>
		<rect x="1270.6" y="626" class="st6" width="43.8" height="45"/>
		<rect x="1314.5" y="581" class="st6" width="43.8" height="45"/>
		<rect x="43.8" y="581" class="st1" width="43.8" height="45"/>
		<rect x="131.4" y="581" class="st1" width="43.8" height="45"/>
		<rect x="219.1" y="581" class="st1" width="43.8" height="45"/>
		<rect x="306.7" y="581" class="st1" width="43.8" height="45"/>
		<rect x="394.3" y="581" class="st1" width="43.8" height="45"/>
		<rect x="482" y="581" class="st1" width="43.8" height="45"/>
		<rect x="569.6" y="581" class="st1" width="43.8" height="45"/>
		<rect x="657.2" y="581" class="st1" width="43.8" height="45"/>
		<rect x="744.9" y="581" class="st1" width="43.8" height="45"/>
		<rect x="832.5" y="581" class="st1" width="43.8" height="45"/>
		<rect x="920.1" y="581" class="st1" width="43.8" height="45"/>
		<rect x="1007.7" y="581" class="st1" width="43.8" height="45"/>
		<rect x="1095.4" y="581" class="st1" width="43.8" height="45"/>
		<rect x="1183" y="581" class="st1" width="43.8" height="45"/>
		<rect x="1270.6" y="581" class="st1" width="43.8" height="45"/>
		<rect x="438.2" y="626" class="st1" width="43.8" height="45"/>
	</g>
	<rect x="1401.7" y="626" class="st7" width="43.8" height="45"/>
	<rect x="1357.8" y="626" class="st8" width="43.8" height="45"/>
	<rect x="1401.7" y="581" class="st8" width="43.8" height="45"/>
	<rect x="1489.3" y="626" class="st7" width="43.8" height="45"/>
	<rect x="1445.5" y="626" class="st8" width="43.8" height="45"/>
	<rect x="1489.3" y="581" class="st8" width="43.8" height="45"/>
	<rect x="1576.9" y="626" class="st7" width="43.8" height="45"/>
	<rect x="1533.1" y="626" class="st8" width="43.8" height="45"/>
	<rect x="1576.9" y="581" class="st8" width="43.8" height="45"/>
	<rect x="1664.6" y="626" class="st7" width="43.8" height="45"/>
	<rect x="1620.7" y="626" class="st8" width="43.8" height="45"/>
	<rect x="1664.6" y="581" class="st8" width="43.8" height="45"/>
	<rect x="1752.2" y="626" class="st7" width="43.8" height="45"/>
	<rect x="1708.4" y="626" class="st8" width="43.8" height="45"/>
	<rect x="1752.2" y="581" class="st8" width="43.8" height="45"/>
	<rect x="1357.8" y="581" class="st7" width="43.8" height="45"/>
	<rect x="1445.5" y="581" class="st7" width="43.8" height="45"/>
	<rect x="1533.1" y="581" class="st7" width="43.8" height="45"/>
	<rect x="1620.7" y="581" class="st7" width="43.8" height="45"/>
	<rect x="1708.4" y="581" class="st7" width="43.8" height="45"/>
</g>
<g class="st3">
	<path class="st9" d="M1792,563v82H4v-82H1792 M1796,559H0v90h1796V559L1796,559z"/>
</g>
<text transform="matrix(1.0295 0 0 1 -7.0039 760.5576)" class="st3"><tspan x="0" y="0" class="st4" style="font-family:'ShaftPlain'; font-size:123.5466px; letter-spacing:2.9;">C</tspan><tspan x="78.6" y="0" class="st9" style="font-family:'ShaftPlain'; font-size:123.5466px; letter-spacing:2.9;">OLL</tspan><tspan x="286.1" y="0" class="st4" style="font-family:'ShaftPlain'; font-size:123.5466px; letter-spacing:2.9;">AB</tspan><tspan x="447" y="0" class="st9" style="font-family:'ShaftPlain'; font-size:123.5466px; letter-spacing:2.9;">ORATIVE</tspan><tspan x="956.2" y="0" class="st9" style="font-family:'ShaftPlain'; font-size:123.5466px; letter-spacing:1;">    </tspan><tspan x="1068.9" y="0" class="st4" style="font-family:'ShaftPlain'; font-size:123.5466px; letter-spacing:2.9;">T</tspan><tspan x="1143.5" y="0" class="st9" style="font-family:'ShaftPlain'; font-size:123.5466px; letter-spacing:2.9;">ELE</tspan><tspan x="1347.6" y="0" class="st4" style="font-family:'ShaftPlain'; font-size:123.5466px; letter-spacing:2.9;">V</tspan><tspan x="1427.7" y="0" class="st9" style="font-family:'ShaftPlain'; font-size:123.5466px; letter-spacing:2.9;">ISION</tspan></text>
</svg>
